<?xml version="1.0" encoding="UTF-8"?>
<svg id="Layer_1" xmlns="http://www.w3.org/2000/svg" version="1.1" xmlns:xlink="http://www.w3.org/1999/xlink" viewBox="0 0 32 32">
  <!-- Generator: Adobe Illustrator 29.5.1, SVG Export Plug-In . SVG Version: 2.1.0 Build 141)  -->
  <defs>
    <style>
      .st0 {
        fill: url(#linear-gradient2);
      }

      .st1 {
        fill: #d85656;
      }

      .st2 {
        fill: #5e5e5e;
      }

      .st3 {
        fill: url(#linear-gradient1);
      }

      .st4 {
        fill: #29a53b;
      }

      .st5, .st6, .st7 {
        fill: none;
      }

      .st8 {
        fill: #a2e259;
      }

      .st9 {
        fill: #bf404c;
      }

      .st10 {
        fill: url(#linear-gradient7);
      }

      .st11 {
        fill: #2b2b2b;
      }

      .st12 {
        fill: url(#linear-gradient4);
      }

      .st13 {
        fill: #168e46;
      }

      .st14 {
        fill: #ef8607;
      }

      .st15 {
        fill: url(#linear-gradient5);
      }

      .st16 {
        fill: url(#linear-gradient3);
      }

      .st6, .st7 {
        stroke: #161a1c;
        stroke-miterlimit: 10;
        stroke-width: .19px;
      }

      .st17 {
        fill: #66c144;
      }

      .st7 {
        stroke-linecap: round;
      }

      .st18 {
        fill: url(#linear-gradient6);
      }

      .st19 {
        fill: url(#linear-gradient);
      }

      .st20 {
        clip-path: url(#clippath);
      }
    </style>
    <linearGradient id="linear-gradient" x1="0" y1="16" x2="32" y2="16" gradientUnits="userSpaceOnUse">
      <stop offset="0" stop-color="#fff83f"/>
      <stop offset=".17" stop-color="#ffaf3e"/>
      <stop offset=".42" stop-color="#ffe10b"/>
      <stop offset=".55" stop-color="#ffff86"/>
      <stop offset=".57" stop-color="#fff87c"/>
      <stop offset=".61" stop-color="#ffe663"/>
      <stop offset=".66" stop-color="#ffc939"/>
      <stop offset=".72" stop-color="#ffa607"/>
      <stop offset=".88" stop-color="#ffde17"/>
      <stop offset="1" stop-color="#ff8f00"/>
    </linearGradient>
    <linearGradient id="linear-gradient1" x1=".43" y1="16" x2="31.57" y2="16" gradientUnits="userSpaceOnUse">
      <stop offset="0" stop-color="#ffb602"/>
      <stop offset=".04" stop-color="#ffca1f"/>
      <stop offset=".09" stop-color="#ffe242"/>
      <stop offset=".12" stop-color="#ffec50"/>
      <stop offset=".13" stop-color="#ffe948"/>
      <stop offset=".18" stop-color="#ffde2e"/>
      <stop offset=".23" stop-color="#ffd619"/>
      <stop offset=".29" stop-color="#ffd10b"/>
      <stop offset=".37" stop-color="#ffcd02"/>
      <stop offset=".49" stop-color="#ffcd00"/>
      <stop offset=".55" stop-color="#ffce03"/>
      <stop offset=".61" stop-color="#ffd30f"/>
      <stop offset=".68" stop-color="#ffdb22"/>
      <stop offset=".74" stop-color="#ffe73d"/>
      <stop offset=".8" stop-color="#fff65f"/>
      <stop offset=".82" stop-color="#fffc6d"/>
      <stop offset=".88" stop-color="#ffdf44"/>
      <stop offset=".96" stop-color="#ffbd13"/>
      <stop offset="1" stop-color="#ffb000"/>
    </linearGradient>
    <linearGradient id="linear-gradient2" x1="3.53" y1="16" x2="28.47" y2="16" xlink:href="#linear-gradient"/>
    <linearGradient id="linear-gradient3" x1="3.89" y1="16" x2="28.11" y2="16" xlink:href="#linear-gradient"/>
    <linearGradient id="linear-gradient4" x1="4.5" y1="16" x2="27.5" y2="16" xlink:href="#linear-gradient"/>
    <linearGradient id="linear-gradient5" x1="5.12" y1="16" x2="26.88" y2="16" xlink:href="#linear-gradient"/>
    <linearGradient id="linear-gradient6" x1="5.74" y1="16" x2="26.26" y2="16" xlink:href="#linear-gradient"/>
    <linearGradient id="linear-gradient7" x1="6.35" y1="16" x2="25.65" y2="16" xlink:href="#linear-gradient"/>
    <clipPath id="clippath">
      <circle class="st5" cx="16" cy="16" r="12.33"/>
    </clipPath>
  </defs>
  <g>
    <g>
      <circle class="st19" cx="16" cy="16" r="16"/>
      <circle class="st3" cx="16" cy="16" r="15.57"/>
      <circle class="st0" cx="16" cy="16" r="12.47"/>
      <circle class="st14" cx="16" cy="16" r="12.01"/>
      <g>
        <path class="st16" d="M16,28.11c-6.68,0-12.11-5.43-12.11-12.11S9.32,3.89,16,3.89s12.11,5.43,12.11,12.11-5.43,12.11-12.11,12.11ZM16,4.09c-6.57,0-11.91,5.34-11.91,11.91s5.34,11.91,11.91,11.91,11.91-5.34,11.91-11.91-5.34-11.91-11.91-11.91Z"/>
        <path class="st12" d="M16,27.5c-6.34,0-11.5-5.16-11.5-11.5s5.16-11.5,11.5-11.5,11.5,5.16,11.5,11.5-5.16,11.5-11.5,11.5ZM16,4.71c-6.23,0-11.29,5.07-11.29,11.29s5.07,11.29,11.29,11.29,11.29-5.07,11.29-11.29-5.07-11.29-11.29-11.29Z"/>
        <path class="st15" d="M16,26.88c-6,0-10.88-4.88-10.88-10.88s4.88-10.88,10.88-10.88,10.88,4.88,10.88,10.88-4.88,10.88-10.88,10.88ZM16,5.33c-5.89,0-10.67,4.79-10.67,10.67s4.79,10.67,10.67,10.67,10.67-4.79,10.67-10.67-4.79-10.67-10.67-10.67Z"/>
        <path class="st18" d="M16,26.26c-5.66,0-10.26-4.6-10.26-10.26s4.6-10.26,10.26-10.26,10.26,4.6,10.26,10.26-4.6,10.26-10.26,10.26ZM16,5.94c-5.55,0-10.06,4.51-10.06,10.06s4.51,10.06,10.06,10.06,10.06-4.51,10.06-10.06-4.51-10.06-10.06-10.06Z"/>
        <path class="st10" d="M25.65,16c0,5.32-4.33,9.65-9.65,9.65s-9.65-4.33-9.65-9.65S10.68,6.35,16,6.35s9.65,4.33,9.65,9.65Z"/>
      </g>
    </g>
    <g class="st20">
      <g>
        <g>
          <path class="st17" d="M5.49,20.02c1.12,2.51,4.57,4.73,10.59,4.95,1.69.06,3.1-.16,4.24-.5,2.94-.88,4.19-2.59,4.19-2.59,1.91-.65,1.66-1.88,1.66-1.88,1.02-1.1.26-1.78.26-1.78-.48-1.71-1.24-2.65-1.24-2.65l.62-4.22s-.12-1.64-2.61-2.46c-1.13-2.67-3.86-3.29-5.9-2.1-1.99-1.69-4.64-1.2-6.59.51-.73.64-1.37,1.46-1.82,2.39l-1.17,1.47c-1.73,1.88-3.35,6.36-2.23,8.86Z"/>
          <path class="st8" d="M10.99,20.54c-.03-.92.28-1.86.86-2.58-.47.05-.89.37-1.11.79s-.26.92-.16,1.38.33.89.61,1.27"/>
          <path class="st8" d="M22.98,16.37c-.36-.59-.98-1.02-1.67-1.13-.26-.04-.57-.03-.73.18-.1.13-.12.31-.08.46s.12.3.22.43c.48.68,1.22,1.17,2.04,1.35.18.04.39.06.54-.05.16-.12.2-.35.15-.54s-.18-.35-.3-.51"/>
          <path class="st8" d="M25.55,16.39c.29.44.48.96.54,1.49-.26-.12-.53-.23-.76-.41s-.41-.42-.46-.7.06-.6.31-.75"/>
          <path class="st8" d="M19.05,10.26c-.35-.38-.75-.73-1.22-.96s-1.01-.33-1.52-.22c-.16.03-.34.12-.35.28,0,.08.04.16.09.23.15.18.37.27.6.34.62.2,1.27.3,1.93.3"/>
          <path class="st8" d="M24.84,10.4c-.58-.66-1.47-1.03-2.34-.98-.14,0-.31.06-.32.19-.01.11.1.2.2.25.65.36,1.39.55,2.14.55"/>
          <path class="st8" d="M17.76,8.65c-.11-.79-.57-1.52-1.23-1.96s-1.51-.6-2.28-.41c-.22.05-.46.15-.58.34-.14.23-.09.53.04.76.23.42.68.68,1.14.81s.95.14,1.43.18.97.11,1.39.34"/>
          <path class="st8" d="M22.72,8.76c-.46-1.05-1.43-1.87-2.54-2.15-.21-.05-.45-.08-.6.07-.15.15-.12.42-.03.61.16.34.46.6.8.77s.7.27,1.07.36c.44.11.88.2,1.32.3"/>
          <path class="st4" d="M22.5,15.5c-.71-.73-1.69-1.19-2.71-1.25.09-.37.22-.76.36-1.12.07-.19.16-.38.29-.53s.32-.26.53-.25c.28.01.51.25.64.5s.21.53.37.77"/>
          <path class="st4" d="M24.11,11.02c-1.13-.52-2.5-.48-3.59.11.08-.29.12-.61.05-.9s-.24-.56-.5-.7c-.35-.19-.78-.12-1.14.03.33.26.62.58.89.9l-.03-.02c.18.1.32.24.38.43s.06.42-.03.61c.54.32,1.22.36,1.8.11"/>
          <path class="st4" d="M18.8,10.88c-2.23-.68-4.69-.6-6.88.23.15-.23.22-.47.18-.73s-.18-.52-.38-.69c.47-.46,1.03-.76,1.65-.97s1.27-.32,1.92-.43c-1.03-.15-2.13,0-2.99.58-.94.63-1.48,1.81-1.35,2.94,0-.02,0-.04-.01-.07"/>
          <path class="st4" d="M17.43,6.94s.65-.4,1.6-.47c0,0-.57.7-.39,1.59s1.53.9,1.53.9l-1.27.39-.23-.02s-.23-.09-.29-.37-.23-.81-.23-.81l-.25-.64-.12-.26"/>
          <path class="st4" d="M5.67,19.93c1.09,2.45,4.46,4.62,10.34,4.83,1.65.06,3.02-.15,4.14-.49-1.75.03-3.5.02-5.19-.41-1.87-.47-3.67-1.5-4.66-3.16-1.29-2.18-.91-5.01.18-7.3.08-.17.16-.33.24-.5-.94-.12-1.87-.26-2.8-.42.95-.06,1.77.18,2.71.12-.81,0-1.5-.28-2.31-.27.5-.17.99-.33,1.49-.5.09-.03.19-.07.24-.15.07-.11.03-.25,0-.37-.32-1.14-.19-2.39.33-3.45-.55.56-1.03,1.23-1.39,1.98l-1.14,1.43c-1.69,1.83-3.27,6.21-2.18,8.65Z"/>
          <path class="st13" d="M10.08,12.94l-2.31.19c-2.03,6.08.32,9.48,5.52,11.14-6.92-1.48-9.51-5.1-6.13-11.67"/>
          <path class="st13" d="M9.12,9.94l.61,1.55-1.65.72-.64-.06c.33-.49.96-1.3,1.68-2.21Z"/>
          <path class="st1" d="M26.17,20s.25,1.24-1.66,1.88c-1.65.68-4.42.71-6.44.17-.07-.02-.14-.04-.22-.06-1.89-.49-3.04-.63-4.29-.43-1.3.21-2.03-.67-1.3-1.84.71-1.15,2.12-1.23,3.53-1.14.03,0,.07,0,.1,0,1.44.09,4.08.92,6.69.79,2.61-.13,3.85-1.16,3.85-1.16,0,0,.76.69-.26,1.78Z"/>
          <path class="st9" d="M16.87,21.5c-.89-.19-1.57-.28-2.22-.28-.38,0-.75.03-1.14.09-.11.02-.22.03-.33.03-.42,0-.74-.15-.88-.4-.15-.28-.1-.66.17-1.08.45-.72,1.24-1.05,2.58-1.05.19,0,.41,0,.65.02-.14.46-.36,1.74,1.17,2.67Z"/>
          <path class="st6" d="M17.3,6.79c2.04-1.19,4.77-.57,5.9,2.1,2.49.82,2.61,2.46,2.61,2.46l-.62,4.22s.76.94,1.24,2.65c0,0,.76.69-.26,1.78,0,0,.25,1.24-1.66,1.88,0,0-2.41,3.3-8.43,3.09s-9.47-2.44-10.59-4.95.51-6.99,2.23-8.87l1.17-1.47c1.67-3.41,5.67-5.24,8.41-2.9Z"/>
          <path class="st7" d="M25.58,10.69s-1.84-.75-4.59.23"/>
          <path class="st6" d="M23.19,8.88s-1.75-.56-4.44.52"/>
          <path class="st7" d="M20.15,11.42s.09-.8-.41-1.01c-2.58-3.22-6.5-2.12-8.11-.75"/>
          <path class="st6" d="M18.42,9.18s-.16-1.35-1.13-2.4"/>
          <path class="st7" d="M19.34,10.37s-2.68-.75-5.81.04"/>
          <path class="st7" d="M20.7,14.1s2.38,1.28,3.36,3.85"/>
          <path class="st6" d="M26.42,18.22s-1.24,1.04-3.85,1.16-5.24-.7-6.69-.79-2.9-.04-3.63,1.14,0,2.05,1.3,1.84,2.48-.05,4.51.49,4.79.51,6.44-.17"/>
          <path class="st7" d="M26.03,20.05s-1.58.78-4.33.7-4.82-.5-5.45-.6-2.34-.29-3.05.3"/>
          <path class="st7" d="M10.19,20.5c.19.77,1.16,1.8,2.36,2.35"/>
        </g>
        <g>
          <path class="st11" d="M24.95,15.77c-.32.16-.7.23-1.15.18,0,0-.01,0-.02,0-1.88-.24-2.93-2.57-3.07-3.51-.08-.05-.37-.11-.56.04,0,.04,0,.09,0,.13-.03.46-.12,1.01-.33,1.58-.48,1.29-.98,2.03-1.71,2.35-.25.11-.52.17-.83.18-.16,0-.38.02-.64.01-1.63-.02-4.82-.48-5.47-3.75l-4.38-.53.16-.26,4.35.39s.93-1.32,2.95-1.68c.31-.06.66-.07,1.02-.05,1.01.05,2.17.33,3.19.55.29.06.57.12.83.17.48.09.74.2.83.56.17-.13.44-.13.55-.01,0-.07,0-.13,0-.16,0-.26.38-.34.38-.34.47-.09.91-.18,1.31-.26,1.41-.28,2.36-.48,3-.51.71-.04,1.04.12,1.2.6.12.38.07,3.5-1.59,4.32Z"/>
          <path class="st2" d="M24.95,15.77c-.32.16-.7.23-1.15.18,0,0-.01,0-.02,0l-1.43-4.58c1.41-.28,2.36-.48,3-.51-2.13,1.73-.68,4.31-.39,4.92Z"/>
          <path class="st2" d="M18.09,16.53c-.25.11-.52.17-.83.18-.16,0-.38.02-.64.01l-1.37-5.88c1.01.05,2.17.33,3.19.55-1.54,1.86-.77,4.19-.36,5.13Z"/>
          <path class="st6" d="M26.54,11.45c.15.45.04,4.82-2.74,4.5-1.9-.22-2.96-2.57-3.1-3.51-.08-.05-.37-.11-.56.04,0,.04,0,.09,0,.13-.03.46-.12,1.01-.33,1.58-.64,1.72-1.31,2.46-2.54,2.53-1.19.07-5.36.04-6.1-3.73l-4.38-.53.16-.26,4.35.39s.93-1.32,2.95-1.68c1.45-.26,3.51.39,5.04.67.48.09.74.2.83.56.17-.13.44-.13.55-.01,0-.07,0-.12,0-.16,0-.26.38-.34.38-.34,4-.76,5.18-1.2,5.51-.17Z"/>
        </g>
      </g>
    </g>
  </g>
  <g>
    <g>
      <path class="st14" d="M11.49,3.57c.03.07-.01.14-.08.17-.07.03-.16.02-.19-.06l-.15-.37c-.32-.15-.63-.3-.96-.46,0,0,0,0,0,0l.45,1.09c.03.07-.01.14-.08.17s-.16.02-.19-.06l-.6-1.44c-.02-.06-.02-.14.08-.18.07-.03.11-.02.18.01.31.15.63.31.94.44l-.28-.67c-.03-.08.02-.15.09-.18.07-.03.15-.01.18.06l.6,1.44Z"/>
      <path class="st14" d="M13.02,2.95c.09-.02.14.03.16.11.02.08,0,.15-.09.17l-.98.25-.44-1.72.98-.25c.09-.02.14.03.16.11.02.09,0,.15-.09.17l-.69.18.11.45.52-.13c.09-.02.14.03.16.11.02.08,0,.15-.09.17l-.52.13.11.44.69-.18Z"/>
      <path class="st14" d="M14.98,2.47c.03.25-.15.48-.42.52l-.38.05c-.28.04-.5-.15-.53-.4l-.11-.87c-.03-.25.15-.49.41-.52l.4-.05c.26-.03.49.15.53.4l.11.87ZM14.55,2.71c.1-.01.16-.1.15-.18l-.12-.91c-.01-.09-.09-.15-.18-.14l-.44.06c-.1.01-.15.09-.14.18l.12.91c.01.08.09.15.19.14l.43-.05Z"/>
      <path class="st14" d="M16.98,2.82c0,.08-.07.12-.15.11-.08,0-.14-.06-.14-.14l.16-1.67.78.07c.25.02.43.23.41.49l-.02.16c-.02.24-.22.42-.49.4l-.49-.05-.06.63ZM17.57,1.96c.1,0,.15-.03.16-.13l.02-.2c0-.09-.04-.14-.13-.15l-.5-.05-.05.48.5.05Z"/>
      <path class="st14" d="M19.45,3.06c.09.02.11.09.09.17-.02.08-.07.13-.16.11l-.98-.23.4-1.73.98.23c.09.02.11.09.09.17-.02.09-.07.13-.16.11l-.7-.16-.1.45.52.12c.09.02.11.09.09.17-.02.08-.07.13-.16.11l-.52-.12-.1.45.7.16Z"/>
      <path class="st14" d="M20.34,3.52c-.03.08-.1.1-.18.07-.08-.03-.12-.09-.1-.17l.58-1.57.73.27c.24.09.36.33.27.57l-.06.15c-.08.23-.32.35-.58.26l-.46-.17-.22.59ZM21.12,2.84c.09.03.15,0,.19-.09l.07-.19c.03-.08,0-.15-.08-.18l-.47-.18-.17.46.47.17Z"/>
      <path class="st14" d="M22.67,4.38c.08.04.08.11.04.19-.04.07-.1.11-.18.07l-.89-.47.83-1.57.89.47c.08.04.08.11.05.18-.04.08-.1.11-.18.07l-.63-.33-.21.41.47.25c.08.04.08.12.05.19-.04.07-.1.11-.18.07l-.47-.25-.21.41.63.33Z"/>
    </g>
    <g>
      <path class="st14" d="M20.51,28.43c-.03-.07.01-.14.08-.17.07-.03.16-.02.19.06l.15.37c.32.15.63.3.96.46,0,0,0,0,0,0l-.45-1.09c-.03-.07.01-.14.08-.17.07-.03.16-.02.19.06l.6,1.44c.02.06.02.14-.08.18-.07.03-.11.02-.18-.01-.31-.15-.63-.31-.94-.44l.28.67c.03.08-.02.15-.09.18-.07.03-.15.01-.18-.06l-.6-1.44Z"/>
      <path class="st14" d="M18.98,29.05c-.09.02-.14-.03-.16-.11-.02-.08,0-.15.09-.17l.98-.25.44,1.72-.98.25c-.09.02-.14-.03-.16-.11-.02-.09,0-.15.09-.17l.69-.18-.11-.45-.52.13c-.09.02-.14-.03-.16-.11-.02-.08,0-.15.09-.17l.52-.13-.11-.44-.69.18Z"/>
      <path class="st14" d="M17.02,29.53c-.03-.25.15-.48.42-.52l.38-.05c.28-.04.5.15.53.4l.11.87c.03.25-.15.49-.41.52l-.4.05c-.26.03-.49-.15-.53-.4l-.11-.87ZM17.45,29.29c-.1.01-.16.1-.15.18l.12.91c.01.09.09.15.18.14l.44-.06c.1-.01.15-.09.14-.18l-.12-.91c-.01-.08-.09-.15-.19-.14l-.43.05Z"/>
      <path class="st14" d="M15.02,29.18c0-.08.07-.12.15-.11.08,0,.14.06.14.14l-.16,1.67-.78-.07c-.25-.02-.43-.23-.41-.49l.02-.16c.02-.24.22-.42.49-.4l.49.05.06-.63ZM14.43,30.04c-.1,0-.15.03-.16.13l-.02.2c0,.09.04.14.13.15l.5.05.05-.48-.5-.05Z"/>
      <path class="st14" d="M12.55,28.94c-.09-.02-.11-.09-.09-.17.02-.08.07-.13.16-.11l.98.23-.4,1.73-.98-.23c-.09-.02-.11-.09-.09-.17.02-.09.07-.13.16-.11l.7.16.1-.45-.52-.12c-.09-.02-.11-.09-.09-.17.02-.08.07-.13.16-.11l.52.12.1-.45-.7-.16Z"/>
      <path class="st14" d="M11.66,28.48c.03-.08.1-.1.18-.07.08.03.12.09.1.17l-.58,1.57-.73-.27c-.24-.09-.36-.33-.27-.57l.06-.15c.08-.23.32-.35.58-.26l.46.17.22-.59ZM10.88,29.16c-.09-.03-.15,0-.19.09l-.07.19c-.03.08,0,.15.08.18l.47.18.17-.46-.47-.17Z"/>
      <path class="st14" d="M9.33,27.62c-.08-.04-.08-.12-.04-.19.04-.07.1-.11.18-.07l.89.47-.83,1.57-.89-.47c-.08-.04-.08-.12-.05-.18.04-.08.1-.11.18-.07l.63.33.21-.41-.47-.25c-.08-.04-.08-.12-.05-.19.04-.07.1-.11.18-.07l.47.25.21-.41-.63-.33Z"/>
    </g>
    <g>
      <path class="st14" d="M28.43,11.49c-.07.03-.14-.01-.17-.08-.03-.07-.02-.16.06-.19l.37-.15c.15-.32.3-.63.46-.96,0,0,0,0,0,0l-1.09.45c-.07.03-.14-.01-.17-.08-.03-.07-.02-.16.06-.19l1.44-.6c.06-.02.14-.02.18.08.03.07.02.11-.01.18-.15.31-.31.63-.44.94l.67-.28c.08-.03.15.02.18.09.03.07.01.15-.06.18l-1.44.6Z"/>
      <path class="st14" d="M29.05,13.02c.02.09-.03.14-.11.16-.08.02-.15,0-.17-.09l-.25-.98,1.72-.44.25.98c.02.09-.03.14-.11.16-.09.02-.15,0-.17-.09l-.18-.69-.45.11.13.52c.02.09-.03.14-.11.16-.08.02-.15,0-.17-.09l-.13-.52-.44.11.18.69Z"/>
      <path class="st14" d="M29.53,14.98c-.25.03-.48-.15-.52-.42l-.05-.38c-.04-.28.15-.5.4-.53l.87-.11c.25-.03.49.15.52.41l.05.4c.03.26-.15.49-.4.53l-.87.11ZM29.29,14.55c.01.1.1.16.18.15l.91-.12c.09-.01.15-.09.14-.18l-.06-.44c-.01-.1-.09-.15-.18-.14l-.91.12c-.08.01-.15.09-.14.19l.05.43Z"/>
      <path class="st14" d="M29.18,16.98c-.08,0-.12-.07-.11-.15,0-.08.06-.14.14-.14l1.67.16-.07.78c-.02.25-.23.43-.49.41l-.16-.02c-.24-.02-.42-.22-.4-.49l.05-.49-.63-.06ZM30.04,17.57c0,.1.03.15.13.16l.2.02c.09,0,.14-.04.15-.13l.05-.5-.48-.05-.05.5Z"/>
      <path class="st14" d="M28.94,19.45c-.02.09-.09.11-.17.09-.08-.02-.13-.07-.11-.16l.23-.98,1.73.4-.23.98c-.02.09-.09.11-.17.09-.09-.02-.13-.07-.11-.16l.16-.7-.45-.1-.12.52c-.02.09-.09.11-.17.09-.08-.02-.13-.07-.11-.16l.12-.52-.45-.1-.16.7Z"/>
      <path class="st14" d="M28.48,20.34c-.08-.03-.1-.1-.07-.18.03-.08.09-.12.17-.1l1.57.58-.27.73c-.09.24-.33.36-.57.27l-.15-.06c-.23-.08-.35-.32-.26-.58l.17-.46-.59-.22ZM29.16,21.12c-.03.09,0,.15.09.19l.19.07c.08.03.15,0,.18-.08l.18-.47-.46-.17-.17.47Z"/>
      <path class="st14" d="M27.62,22.67c-.04.08-.12.08-.19.04-.07-.04-.11-.1-.07-.18l.47-.89,1.57.83-.47.89c-.04.08-.12.08-.18.05-.08-.04-.11-.1-.07-.18l.33-.63-.41-.21-.25.47c-.04.08-.12.08-.19.05-.07-.04-.11-.1-.07-.18l.25-.47-.41-.21-.33.63Z"/>
    </g>
    <g>
      <path class="st14" d="M3.57,20.51c.07-.03.14.01.17.08.03.07.02.16-.06.19l-.37.15c-.15.32-.3.63-.46.96,0,0,0,0,0,0l1.09-.45c.07-.03.14.01.17.08.03.07.02.16-.06.19l-1.44.6c-.06.02-.14.02-.17-.08-.03-.07-.02-.11.01-.18.15-.31.31-.63.44-.94l-.67.28c-.08.03-.15-.02-.18-.09-.03-.07-.01-.15.06-.18l1.44-.6Z"/>
      <path class="st14" d="M2.95,18.98c-.02-.09.03-.14.11-.16.08-.02.15,0,.17.09l.25.98-1.72.44-.25-.98c-.02-.09.03-.14.11-.16.09-.02.15,0,.17.09l.18.69.45-.11-.13-.52c-.02-.09.03-.14.11-.16.08-.02.15,0,.17.09l.13.52.44-.11-.18-.69Z"/>
      <path class="st14" d="M2.47,17.02c.25-.03.48.15.52.42l.05.38c.04.28-.15.5-.4.53l-.87.11c-.25.03-.49-.15-.52-.41l-.05-.4c-.03-.26.15-.49.4-.53l.87-.11ZM2.71,17.45c-.01-.1-.1-.16-.18-.15l-.91.12c-.09.01-.15.09-.14.18l.06.44c.01.1.09.15.18.14l.91-.12c.08-.01.15-.09.14-.19l-.05-.43Z"/>
      <path class="st14" d="M2.82,15.02c.08,0,.12.07.11.15,0,.08-.06.14-.14.14l-1.67-.16.07-.78c.02-.25.23-.43.49-.41l.16.02c.24.02.42.22.4.49l-.05.49.63.06ZM1.96,14.43c0-.1-.03-.15-.13-.16l-.2-.02c-.09,0-.14.04-.15.13l-.05.5.48.05.05-.5Z"/>
      <path class="st14" d="M3.06,12.55c.02-.09.09-.11.17-.09.08.02.13.07.11.15l-.23.98-1.73-.4.23-.98c.02-.09.09-.11.17-.09.09.02.13.07.11.16l-.16.7.45.1.12-.52c.02-.09.09-.11.17-.09.08.02.13.07.11.16l-.12.52.45.1.16-.7Z"/>
      <path class="st14" d="M3.52,11.66c.08.03.1.1.07.18-.03.08-.09.12-.17.1l-1.57-.58.27-.73c.09-.24.33-.36.57-.27l.15.06c.23.08.35.32.26.58l-.17.46.59.22ZM2.84,10.88c.03-.09,0-.15-.09-.19l-.19-.07c-.08-.03-.15,0-.18.08l-.18.47.46.17.17-.47Z"/>
      <path class="st14" d="M4.38,9.33c.04-.08.12-.08.19-.04.07.04.11.1.07.18l-.47.89-1.57-.83.47-.89c.04-.08.11-.08.18-.05.08.04.11.1.07.18l-.33.63.41.21.25-.47c.04-.08.12-.08.19-.05.07.04.11.1.07.18l-.25.47.41.21.33-.63Z"/>
    </g>
  </g>
</svg>